<svg width="28" height="28" viewBox="0 0 28 28" fill="none" xmlns="http://www.w3.org/2000/svg">
<path d="M14.0003 3.79199C11.9813 3.79199 10.0076 4.3907 8.32888 5.51241C6.65013 6.63411 5.3417 8.22844 4.56906 10.0938C3.79642 11.9591 3.59426 14.0116 3.98815 15.9919C4.38204 17.9721 5.35429 19.791 6.78195 21.2187C8.20961 22.6464 10.0286 23.6186 12.0088 24.0125C13.989 24.4064 16.0416 24.2042 17.9069 23.4316C19.7722 22.6589 21.3665 21.3505 22.4882 19.6718C23.61 17.993 24.2087 16.0193 24.2087 14.0003C24.2025 11.2948 23.125 8.70185 21.2119 6.78875C19.2988 4.87565 16.7059 3.79816 14.0003 3.79199ZM19.4837 11.667L13.6503 17.5003C13.4863 17.6642 13.2639 17.7562 13.032 17.7562C12.8001 17.7562 12.5777 17.6642 12.4137 17.5003L8.517 13.6503C8.35314 13.4863 8.2611 13.2639 8.2611 13.032C8.2611 12.8001 8.35314 12.5777 8.517 12.4137C8.59743 12.3311 8.69358 12.2655 8.79978 12.2207C8.90598 12.1759 9.02007 12.1528 9.13533 12.1528C9.25059 12.1528 9.36468 12.1759 9.47088 12.2207C9.57707 12.2655 9.67323 12.3311 9.75366 12.4137L13.032 15.6803L18.247 10.5003C18.3125 10.3851 18.4033 10.2863 18.5127 10.2113C18.622 10.1363 18.7469 10.0871 18.878 10.0675C19.009 10.0478 19.1429 10.0582 19.2694 10.0979C19.3958 10.1375 19.5117 10.2054 19.6081 10.2963C19.7045 10.3873 19.779 10.499 19.8259 10.6229C19.8729 10.7469 19.891 10.8799 19.8791 11.0119C19.8671 11.1439 19.8253 11.2715 19.7568 11.385C19.6883 11.4984 19.5949 11.5949 19.4837 11.667Z" fill="#12B76A"/>
</svg>
