<svg width="28" height="28" viewBox="0 0 28 28" fill="none" xmlns="http://www.w3.org/2000/svg">
<path fill-rule="evenodd" clip-rule="evenodd" d="M23.9167 13.7083C23.9167 19.3462 19.3462 23.9167 13.7083 23.9167C8.07043 23.9167 3.5 19.3462 3.5 13.7083C3.5 8.07043 8.07043 3.5 13.7083 3.5C19.3462 3.5 23.9167 8.07043 23.9167 13.7083ZM10.8512 13.7078C10.8512 15.0609 9.75427 16.1578 8.40117 16.1578C7.04807 16.1578 5.95117 15.0609 5.95117 13.7078C5.95117 12.3547 7.04807 11.2578 8.40117 11.2578C9.75427 11.2578 10.8512 12.3547 10.8512 13.7078ZM13.7098 16.1578C15.0629 16.1578 16.1598 15.0609 16.1598 13.7078C16.1598 12.3547 15.0629 11.2578 13.7098 11.2578C12.3567 11.2578 11.2598 12.3547 11.2598 13.7078C11.2598 15.0609 12.3567 16.1578 13.7098 16.1578ZM21.4674 13.7078C21.4674 15.0609 20.3705 16.1578 19.0174 16.1578C17.6643 16.1578 16.5674 15.0609 16.5674 13.7078C16.5674 12.3547 17.6643 11.2578 19.0174 11.2578C20.3705 11.2578 21.4674 12.3547 21.4674 13.7078Z" fill="#DDA34D"/>
</svg>
