<svg width="28" height="28" viewBox="0 0 28 28" fill="none" xmlns="http://www.w3.org/2000/svg">
<path d="M14.2083 24.4167C19.8462 24.4167 24.4167 19.8462 24.4167 14.2083C24.4167 8.57043 19.8462 4 14.2083 4C8.57043 4 4 8.57043 4 14.2083C4 19.8462 8.57043 24.4167 14.2083 24.4167Z" fill="#D6D432"/>
<path d="M14.9567 8.27017C15.3735 8.56404 15.5982 8.95896 15.8367 9.40143C15.8831 9.48646 15.9297 9.5714 15.9763 9.65635C16.0075 9.71336 16.0387 9.77039 16.0699 9.82745C16.2066 10.0776 16.3472 10.3254 16.4893 10.5726C16.6818 10.9079 16.8731 11.2439 17.0632 11.5806C17.0885 11.6253 17.1138 11.6701 17.1398 11.7162C17.2409 11.8952 17.3419 12.0741 17.4428 12.2531C17.7263 12.7556 18.0108 13.2575 18.2975 13.7582C18.6352 14.348 18.9692 14.9398 19.3 15.5335C19.3704 15.6596 19.4415 15.7853 19.5127 15.911C19.5341 15.9489 19.5555 15.9868 19.5776 16.0259C19.6164 16.0948 19.6555 16.1636 19.6948 16.2323C19.8864 16.5734 20.0055 16.8721 19.9998 17.2673C19.9993 17.3192 19.9993 17.3192 19.9987 17.3722C19.9853 17.8214 19.8194 18.1796 19.5133 18.5083C18.9943 18.9915 18.4441 19.0017 17.773 18.9986C17.6818 18.9988 17.5906 18.9992 17.4995 18.9996C17.2529 19.0004 17.0064 19.0001 16.7599 18.9995C16.5013 18.999 16.2427 18.9995 15.9841 18.9998C15.55 19.0001 15.1158 18.9997 14.6817 18.9988C14.1805 18.9978 13.6793 18.9981 13.178 18.9991C12.7469 19 12.3158 19.0001 11.8847 18.9996C11.6276 18.9993 11.3704 18.9993 11.1133 18.9999C10.8715 19.0004 10.6297 19 10.3879 18.999C10.2994 18.9987 10.2109 18.9988 10.1224 18.9992C9.49628 19.0019 8.99158 18.9564 8.51274 18.5083C8.13344 18.0978 8.00218 17.7137 8 17.1566C8.0404 16.4578 8.56376 15.7787 8.9038 15.1896C9.0272 14.9749 9.14864 14.7591 9.27019 14.5434C9.4812 14.1693 9.69375 13.796 9.9072 13.4233C10.1864 12.9358 10.4629 12.4468 10.7367 11.9562C10.9562 11.5632 11.1792 11.1722 11.4032 10.7817C11.574 10.4842 11.7436 10.1862 11.9098 9.88613C11.9532 9.80789 11.9532 9.80789 11.9975 9.72808C12.0515 9.63049 12.1053 9.53278 12.1588 9.43493C12.5126 8.79568 12.8633 8.26697 13.5868 8.04002C14.0707 7.9457 14.5363 8.01642 14.9567 8.27017ZM13.4828 11.1581C13.2998 11.4608 13.2995 11.7431 13.2998 12.0871C13.2996 12.1376 13.2994 12.188 13.2992 12.24C13.2989 12.3465 13.2989 12.453 13.2991 12.5594C13.2993 12.7217 13.2982 12.8839 13.297 13.0461C13.2969 13.1499 13.2968 13.2536 13.2969 13.3573C13.2965 13.4055 13.296 13.4537 13.2956 13.5033C13.2977 13.8331 13.3223 14.124 13.5556 14.3773C13.7513 14.4904 13.9311 14.5687 14.16 14.5288C14.3747 14.4584 14.4946 14.3674 14.619 14.1734C14.6795 14.0523 14.6728 13.9622 14.6746 13.8266C14.6757 13.747 14.6757 13.747 14.6768 13.6658C14.6789 13.4225 14.6809 13.1792 14.6819 12.936C14.6825 12.8077 14.6838 12.6795 14.6857 12.5512C14.6885 12.3663 14.6893 12.1815 14.69 11.9966C14.691 11.9395 14.6921 11.8823 14.6932 11.8234C14.6924 11.4864 14.6674 11.2987 14.4325 11.0503C14.1038 10.8472 13.7568 10.8914 13.4828 11.1581ZM13.4391 16.1952C13.3309 16.3634 13.292 16.4904 13.3328 16.6897C13.4086 16.9299 13.5139 17.0691 13.7333 17.2032C13.9464 17.2692 14.129 17.2799 14.3306 17.177C14.4882 17.0692 14.5832 16.9583 14.6656 16.7837C14.7037 16.565 14.6879 16.4097 14.5898 16.2098C14.4492 16.0507 14.3237 15.9224 14.1084 15.8802C13.8123 15.8632 13.6431 15.9857 13.4391 16.1952Z" fill="white"/>
</svg>
