<svg width="28" height="28" viewBox="0 0 28 28" fill="none" xmlns="http://www.w3.org/2000/svg">
<path d="M14.21 4C8.57785 4 4 8.57785 4 14.21C4 19.8421 8.57785 24.42 14.21 24.42C19.8421 24.42 24.42 19.8421 24.42 14.21C24.42 8.57785 19.8421 4 14.21 4ZM14.21 7.49582C15.0978 7.49582 15.8192 8.24492 15.7637 9.13274L15.4585 15.2365C15.4308 15.9024 14.8759 16.4296 14.21 16.4296C13.5441 16.4296 12.9892 15.9024 12.9615 15.2365L12.6563 9.16049C12.6008 8.27266 13.3222 7.49582 14.21 7.49582ZM14.21 20.9242C13.2944 20.9242 12.5453 20.1751 12.5453 19.2595C12.5453 18.3439 13.2944 17.5948 14.21 17.5948C15.1256 17.5948 15.8747 18.3439 15.8747 19.2595C15.8747 20.1751 15.1256 20.9242 14.21 20.9242Z" fill="#DF3838"/>
</svg>
